HIERARCHY
ROOT hip
{
	OFFSET 0.000000 0.000000 0.000000 
	CHANNELS 6 Xposition Yposition Zposition Xrotation Zrotation Yrotation
	JOINT abdomen
	{
		OFFSET 0.000000 3.402643 0.000000 
		CHANNELS 3 Xrotation Zrotation Yrotation
		JOINT chest
		{
			OFFSET 0.000000 8.438565 -0.680529 
			CHANNELS 3 Xrotation Zrotation Yrotation
			JOINT neck
			{
				OFFSET 0.000000 10.207942 -0.272212 
				CHANNELS 3 Xrotation Zrotation Yrotation
				JOINT head
				{
					OFFSET 0.000000 3.130431 0.000000 
					CHANNELS 3 Xrotation Zrotation Yrotation
					End Site
					{
						OFFSET 0.000000 3.130435 0.000000 
					}
				}
			}
			JOINT lCollar
			{
				OFFSET 3.470700 6.669187 -0.816635 
				CHANNELS 3 Yrotation Zrotation Xrotation
				JOINT lShldr
				{
					OFFSET 3.198488 0.000000 0.000000 
					CHANNELS 3 Zrotation Yrotation Xrotation
					JOINT lForeArm
					{
						OFFSET 10.139888 0.000000 0.000000 
						CHANNELS 3 Yrotation Zrotation Xrotation
						JOINT lHand
						{
							OFFSET 8.370511 0.000000 0.000000 
							CHANNELS 3 Zrotation Yrotation Xrotation
							End Site
							{
								OFFSET 4.083176 0.000000 0.000000 
							}
						}
					}
				}
			}
			JOINT rCollar
			{
				OFFSET -3.470700 6.669187 -0.816635 
				CHANNELS 3 Yrotation Zrotation Xrotation
				JOINT rShldr
				{
					OFFSET -3.198488 0.000000 0.000000 
					CHANNELS 3 Zrotation Yrotation Xrotation
					JOINT rForeArm
					{
						OFFSET -10.139888 0.000000 0.000000 
						CHANNELS 3 Yrotation Zrotation Xrotation
						JOINT rHand
						{
							OFFSET -8.370511 0.000000 0.000000 
							CHANNELS 3 Zrotation Yrotation Xrotation
							End Site
							{
								OFFSET -4.083176 0.000000 0.000000 
							}
						}
					}
				}
			}
		}
	}
	JOINT lThigh
	{
		OFFSET 5.308129 -1.633274 1.361059 
		CHANNELS 3 Xrotation Zrotation Yrotation
		JOINT lShin
		{
			OFFSET -2.041588 -20.007561 0.000000 
			CHANNELS 3 Xrotation Zrotation Yrotation
			JOINT lFoot
			{
				OFFSET 0.000000 -19.190928 -1.224953 
				CHANNELS 3 Xrotation Yrotation Zrotation
				End Site
				{
					OFFSET 0.000000 -2.449906 4.627600 
				}
			}
		}
	}
	JOINT rThigh
	{
		OFFSET -5.308129 -1.633274 1.361059 
		CHANNELS 3 Xrotation Zrotation Yrotation
		JOINT rShin
		{
			OFFSET 2.041588 -20.007561 0.000000 
			CHANNELS 3 Xrotation Zrotation Yrotation
			JOINT rFoot
			{
				OFFSET 0.000000 -19.190928 -1.224953 
				CHANNELS 3 Xrotation Yrotation Zrotation
				End Site
				{
					OFFSET 0.000000 -2.449906 4.627600 
				}
			}
		}
	}
}
MOTION
Frames: 18
Frame Time: 0.033333
1.134275 47.885216 2.157285 -0.720333 0.526395 3.437714 0.000000 0.000000 0.000000 -3.740225 -0.070282 -0.120887 6.308394 -0.146484 0.078125 4.588996 -1.757694 0.664349 -0.260889 8.645990 -2.816070 -6.727522 4.555152 -3.112720 -0.008547 -5.004156 9.009112 0.629176 -2.995149 -3.436814 -0.048350 -8.122652 -2.829794 1.071918 -10.702998 -10.850034 -0.005645 4.996766 17.601400 -1.294728 7.113623 -3.474136 0.263470 7.978301 7.292365 16.508204 -3.438370 3.959389 -14.426591 0.864760 -6.024059 0.330929 -10.405032 -9.486449 16.530138 3.122305 -4.505150 -13.698188 -0.890003 7.762365 
1.141239 47.889225 2.154092 -0.788655 0.536176 3.379124 0.000000 0.000000 0.000000 -3.701160 -0.071201 -0.130609 6.318285 -0.146484 0.029297 4.656635 -1.874881 0.644825 -0.300366 8.530214 -2.785617 -6.656730 4.624929 -3.046157 -0.005363 -5.005710 9.155880 0.533317 -3.030243 -3.431889 0.028387 -8.067455 -2.791115 1.131588 -10.748946 -10.706501 -0.004949 4.997376 17.239010 -1.291150 7.055143 -3.473251 0.369887 7.950660 7.300564 16.468037 -3.447754 4.009623 -14.396842 0.854944 -6.017906 0.409114 -10.423450 -9.529178 16.493542 3.142532 -4.427245 -13.662009 -0.884372 7.720919 
1.145057 47.883446 2.149267 -0.857380 0.536197 3.340063 0.000000 0.000000 0.000000 -3.671857 -0.073958 -0.159777 6.298936 -0.126953 -0.048850 4.823619 -1.904191 0.605783 -0.370429 8.415731 -2.745500 -6.577603 4.700424 -3.106493 -0.001086 -5.005713 9.204522 0.382218 -2.961016 -3.423847 0.058225 -7.941565 -2.760741 1.177514 -10.712335 -10.831151 -0.000679 4.997379 17.190367 -1.356320 6.992519 -3.479497 0.399048 7.949653 7.320267 16.555161 -3.418322 4.036479 -14.444442 0.855658 -6.040017 0.438473 -10.433016 -9.540467 16.570742 3.142139 -4.353834 -13.699219 -0.925651 7.689094 
1.146248 47.883072 2.143026 -0.926308 0.526448 3.340062 0.000000 0.000000 0.000000 -3.642551 -0.076716 -0.188944 6.347786 -0.126953 -0.058615 4.804398 -1.874895 0.605784 -0.430550 8.271507 -2.713644 -6.550376 4.709475 -3.124503 0.000624 -5.005713 9.224831 0.541323 -3.000414 -3.432218 0.037275 -7.852362 -2.730388 1.313557 -10.650108 -11.096894 -0.003800 4.990938 17.366293 -1.269131 6.997630 -3.478484 0.447942 7.931960 7.299393 16.555054 -3.379096 4.090226 -14.430004 0.848116 -6.098741 0.486717 -10.442781 -9.552367 16.570406 3.142046 -4.344103 -13.674786 -0.902252 7.711679 
1.141600 47.885704 2.137815 -1.006394 0.497216 3.310677 0.000000 0.000000 0.000000 -3.623021 -0.076716 -0.188944 6.464973 -0.126953 -0.058615 4.649891 -1.738187 0.595725 -0.558338 8.110979 -2.692853 -6.454716 4.771093 -2.780122 -0.004232 -5.000839 9.518353 0.849151 -3.060083 -3.458676 0.144510 -7.710603 -2.709697 1.414342 -10.720579 -11.142675 -0.004717 4.993843 17.483849 -1.064668 7.039273 -3.454998 0.506704 7.989836 7.313482 16.572422 -3.388296 4.068199 -14.420240 0.841849 -6.090991 0.584277 -10.394224 -9.561126 16.516815 3.160183 -4.335310 -13.649075 -0.920137 7.691156 
1.145064 47.887218 2.131452 -1.065635 0.487471 3.300911 0.000000 0.000000 0.000000 -3.623017 -0.097998 -0.206554 6.494443 -0.136718 -0.126976 4.772080 -1.503850 0.498132 -0.563434 8.003675 -2.692845 -6.377134 4.666099 -2.146121 -0.001672 -5.004763 10.449262 0.930511 -2.947561 -3.461946 0.219224 -7.606467 -2.698704 1.568039 -10.649848 -11.047337 0.000585 4.993368 17.777288 -0.936981 7.046907 -3.438233 0.555827 8.016065 7.354928 16.581499 -3.427300 3.985151 -14.398955 0.894108 -6.030089 0.663643 -10.410131 -9.613508 16.478703 3.189762 -4.265965 -13.648525 -0.897734 7.669991 
1.153813 47.890865 2.105323 -0.977097 0.497216 3.310677 0.000000 0.000000 0.000000 -3.701116 -0.114154 -0.273694 6.416884 -0.283202 -0.175827 4.915100 -1.074197 0.361265 -0.841117 7.753876 -2.749327 -6.141767 4.916682 -1.046198 -0.000295 -5.000627 11.958301 1.062724 -3.027608 -3.469820 0.124206 -7.563498 -2.767782 1.696361 -10.234583 -10.477389 -0.005748 4.989905 18.453447 -0.881779 7.275203 -3.434018 0.428398 7.913039 7.288165 16.573524 -3.349699 4.160848 -14.383791 0.839520 -6.047946 0.545275 -10.423203 -9.562280 16.463711 3.171709 -4.308576 -13.597308 -0.891395 7.683189 
1.159562 47.895031 2.077725 -0.909219 0.487462 3.320441 0.000000 0.000000 0.000000 -3.720592 -0.133986 -0.379723 6.124575 -0.332028 -0.263724 5.238593 -0.986313 0.322218 -1.224250 7.488844 -2.757327 -6.023102 5.316433 -0.148783 -0.007017 -5.006745 13.703244 1.818929 -3.216279 -3.516433 0.041487 -7.403238 -2.785908 1.709887 -9.646000 -9.933435 -0.004276 4.990595 19.501644 -1.146548 7.778085 -3.454282 0.311507 7.896736 7.217844 16.572886 -3.329917 4.309519 -14.313004 0.866983 -6.109177 0.457731 -10.402687 -9.558507 16.421797 3.180614 -4.300330 -13.517465 -0.884482 7.685233 
1.176412 47.904339 2.044775 -0.994553 0.546005 3.232647 0.000000 0.000000 0.000000 -3.622899 -0.260763 -0.475661 5.861451 -0.283196 -0.419965 5.278353 -0.917956 0.302696 -1.160499 7.424820 -2.669012 -6.464142 5.112966 -0.499406 -0.004659 -5.007568 15.114034 2.768406 -3.050508 -3.554515 -0.137877 -7.276966 -2.707206 2.302718 -8.529524 -10.954849 -0.003712 4.993001 20.559523 -2.066978 8.055655 -3.548586 0.408658 7.756305 7.148930 16.459961 -3.282220 4.518553 -14.228296 0.877827 -6.069518 0.497562 -10.524746 -9.637464 16.379822 3.218612 -4.171483 -13.462563 -0.878904 7.632603 
1.197184 47.914169 1.974391 -0.893129 0.633822 3.125241 0.000000 0.000000 0.000000 -3.720573 -0.455596 -0.565176 5.618393 -0.253887 -0.712927 5.077577 -0.458984 0.068357 -0.743511 7.417758 -2.796514 -7.588163 4.173208 -2.117153 -0.000433 -5.008490 15.623196 3.873969 -2.217207 -3.602213 -0.335790 -7.072157 -2.804095 3.635185 -6.901218 -13.444719 -0.005012 4.992985 18.551540 -4.108945 7.891606 -3.743056 0.291694 7.512308 6.974219 16.313848 -3.165270 4.816200 -14.086155 0.867874 -6.127527 0.281775 -10.657159 -9.631528 16.409155 3.208882 -4.102534 -13.337531 -0.902973 7.628755 
1.230285 47.926998 1.892838 -0.589588 0.663118 3.056888 0.000000 0.000000 0.000000 -3.945262 -0.574102 -0.573613 4.801403 -0.322200 -1.152381 5.848749 0.107418 -0.458984 -0.628629 6.868156 -3.000053 -8.747556 3.075460 -3.746375 -0.000700 -4.749062 14.902465 5.491535 -1.446588 -3.659543 -0.296402 -6.585339 -3.007752 5.336730 -5.185390 -16.407318 -0.001776 4.980725 14.456466 -6.743406 8.576117 -4.039450 -0.069446 7.354305 6.767467 16.215570 -3.119064 5.159894 -13.940214 0.863689 -6.105788 -0.078720 -10.790913 -9.571586 16.315502 3.259100 -3.995658 -13.222780 -0.845141 7.623603 
1.279645 47.939590 1.780889 -0.291818 0.594925 2.929935 0.000000 0.000000 0.000000 -4.062591 -0.590402 -0.434646 3.525870 -0.370952 -1.582124 7.122592 0.820155 -1.123072 -0.969903 5.773280 -3.091411 -9.873264 1.944168 -4.991784 -0.005483 -4.341353 13.602428 6.773521 -1.586689 -3.726701 0.515091 -5.719222 -3.071384 7.996166 -6.947639 -18.672342 4.588020 4.954329 10.733839 -8.140588 8.955950 -4.203164 -0.547134 7.260496 6.605781 16.271608 -3.008021 5.569496 -13.817930 0.850851 -6.154729 -0.410820 -10.826526 -9.534842 16.128113 3.375519 -3.613860 -13.026108 -0.825592 7.488194 
1.333253 47.961861 1.653806 0.070132 0.429159 2.841937 0.000000 0.000000 0.000000 -4.258029 -0.579904 -0.219836 2.335774 -0.312286 -2.119215 7.672535 1.542090 -1.934207 -1.213844 4.822219 -3.243071 -12.303915 1.395596 -6.903492 -1.798486 -3.649776 12.738081 6.981129 -1.622912 -3.728505 1.684224 -4.329380 -3.210093 11.887939 -11.466561 -20.889637 14.895386 4.529408 8.327822 -8.463565 7.806346 -4.175031 -1.074040 7.281214 6.512154 16.292822 -2.990385 5.784823 -13.758389 0.786813 -6.088927 -0.733204 -10.785435 -9.493423 15.680649 3.512855 -3.423796 -12.665627 -0.794675 7.399281 
1.410224 47.990150 1.514606 0.330896 0.185346 2.666034 0.000000 0.000000 0.000000 -4.355689 -0.517119 0.029267 1.240217 -0.204846 -2.724627 7.685584 2.350600 -2.853567 -1.787386 3.595531 -3.315094 -15.961777 3.647364 -9.114190 -10.215074 -2.758944 11.396750 6.644989 -0.478943 -3.663651 3.046289 -1.965678 -3.297698 15.470397 -14.706547 -23.331997 22.479921 4.482158 6.110416 -9.895927 6.867843 -4.240953 -1.542048 7.423999 6.541429 16.356707 -3.047642 5.909935 -13.622351 0.794659 -5.940822 -0.947752 -10.620075 -9.358992 15.053613 3.541471 -3.513127 -12.128563 -0.791589 7.434378 
1.520209 47.994438 1.385346 0.324171 0.048791 2.236336 0.000000 0.000000 0.000000 -4.238328 -0.432663 0.403840 0.063145 -0.077992 -3.339854 8.497299 2.689657 -3.714635 -2.826758 1.743130 -3.210339 -20.420958 6.630672 -11.931544 -19.458143 -1.668743 9.593485 5.939645 0.464016 -3.604104 5.007138 1.180533 -3.269839 18.920410 -16.949598 -26.608791 27.319834 4.483531 2.380631 -11.756683 6.346869 -4.365039 -1.757802 7.391516 6.599653 16.663801 -3.078233 6.275046 -13.730950 0.820372 -5.819226 -1.113592 -10.576794 -9.223753 14.845742 3.491794 -3.289626 -11.750196 -0.790833 7.460261 
1.668452 47.999851 1.249502 0.252943 -0.029281 1.884765 0.000000 0.000000 0.000000 -4.111226 -0.324412 0.511262 -1.130048 0.097405 -4.111322 10.045094 2.278846 -4.261040 -4.299798 -0.466726 -3.155362 -26.062634 9.249765 -16.107712 -26.935139 -0.220256 9.132500 4.350375 1.153990 -3.555004 6.788721 4.222998 -3.318046 23.896698 -18.284451 -32.062096 32.176060 4.703649 -3.872397 -12.049807 5.393649 -4.305178 -1.934173 7.266138 6.504304 16.905382 -3.036067 6.663749 -13.755099 0.782337 -5.708180 -1.152751 -10.726744 -9.251282 14.582773 3.570092 -2.938917 -11.397916 -0.722917 7.519974 
1.848842 48.000713 1.088521 0.164208 -0.058566 1.767577 0.000000 0.000000 0.000000 -3.867260 -0.304679 0.097467 -2.377257 0.262601 -5.166051 12.378521 2.024899 -4.533936 -6.288724 -2.578075 -3.051452 -33.144764 13.383688 -19.814816 -35.919094 1.048801 10.292657 3.737478 2.347875 -3.513980 7.866045 7.229817 -3.348726 29.563957 -19.096579 -35.858597 38.752964 4.991679 -16.393139 -12.627153 4.146186 -4.227713 -2.197068 7.000765 6.425177 17.216805 -2.979656 7.001358 -13.766406 0.774195 -5.526594 -1.191603 -10.958241 -9.372060 14.418393 3.629278 -2.700608 -11.044192 -0.737397 7.603578 
2.049531 47.989395 0.945243 -0.003743 -0.126898 1.689449 0.000000 0.000000 0.000000 -3.476070 -0.211475 -0.784395 -3.426952 0.164954 -6.484376 14.386846 2.082616 -4.768503 -8.549112 -4.926770 -2.880344 -39.962395 18.597343 -20.278120 -44.743484 1.234421 11.008789 4.379700 3.310889 -3.501976 8.070397 9.677608 -3.261772 37.104168 -18.355734 -40.740757 45.143463 4.997957 -21.690462 -14.255613 1.742327 -4.065740 -2.450417 6.920543 6.492066 17.758900 -3.156958 7.155264 -13.929894 0.723553 -5.204837 -1.162268 -11.120267 -9.382506 14.260494 3.570228 -2.679100 -10.729588 -0.693673 7.867777 
